<svg width="35" height="35" viewBox="0 0 35 35" fill="none" xmlns="http://www.w3.org/2000/svg">
<mask id="path-1-inside-1" fill="white">
<path d="M17.5 34.25C26.7508 34.25 34.25 26.7508 34.25 17.5C34.25 8.24923 26.7508 0.75 17.5 0.75C8.24923 0.75 0.75 8.24923 0.75 17.5C0.75 26.7508 8.24923 34.25 17.5 34.25Z"/>
<path d="M19.175 10.8C19.175 11.7251 18.4251 12.475 17.5 12.475C16.5749 12.475 15.825 11.7251 15.825 10.8C15.825 9.87492 16.5749 9.125 17.5 9.125C18.4251 9.125 19.175 9.87492 19.175 10.8Z"/>
</mask>
<path d="M17 24.2C17 24.4761 17.2239 24.7 17.5 24.7C17.7761 24.7 18 24.4761 18 24.2H17ZM18 17.5C18 17.2239 17.7761 17 17.5 17C17.2239 17 17 17.2239 17 17.5H18ZM18 24.2V17.5H17V24.2H18ZM33.25 17.5C33.25 26.1985 26.1985 33.25 17.5 33.25V35.25C27.3031 35.25 35.25 27.3031 35.25 17.5H33.25ZM17.5 33.25C8.80151 33.25 1.75 26.1985 1.75 17.5H-0.25C-0.25 27.3031 7.69694 35.25 17.5 35.25V33.25ZM1.75 17.5C1.75 8.80151 8.80151 1.75 17.5 1.75V-0.25C7.69694 -0.25 -0.25 7.69694 -0.25 17.5H1.75ZM17.5 1.75C26.1985 1.75 33.25 8.80151 33.25 17.5H35.25C35.25 7.69694 27.3031 -0.25 17.5 -0.25V1.75ZM18.175 10.8C18.175 11.1728 17.8728 11.475 17.5 11.475V13.475C18.9774 13.475 20.175 12.2774 20.175 10.8H18.175ZM17.5 11.475C17.1272 11.475 16.825 11.1728 16.825 10.8H14.825C14.825 12.2774 16.0226 13.475 17.5 13.475V11.475ZM16.825 10.8C16.825 10.4272 17.1272 10.125 17.5 10.125V8.125C16.0226 8.125 14.825 9.32264 14.825 10.8H16.825ZM17.5 10.125C17.8728 10.125 18.175 10.4272 18.175 10.8H20.175C20.175 9.32264 18.9774 8.125 17.5 8.125V10.125Z" fill="black" mask="url(#path-1-inside-1)"/>
</svg>
