<svg width="33" height="27" viewBox="0 0 33 27" fill="none" xmlns="http://www.w3.org/2000/svg">
<path d="M31.075 2.89719V10.8472M31.075 10.8472H23.125M31.075 10.8472L24.927 5.07006C23.5029 3.64531 21.7412 2.60451 19.8061 2.04479C17.871 1.48506 15.8257 1.42466 13.861 1.8692C11.8962 2.31375 10.0761 3.24876 8.57048 4.58699C7.06484 5.92522 5.92273 7.62305 5.25074 9.52206M1.92499 24.0972V16.1472M1.92499 16.1472H9.87499M1.92499 16.1472L8.07299 21.9241C9.49703 23.3488 11.2588 24.3896 13.1939 24.9493C15.1289 25.5091 17.1743 25.5695 19.139 25.1249C21.1037 24.6804 22.9239 23.7454 24.4295 22.4071C25.9351 21.0689 27.0772 19.3711 27.7492 17.4721" stroke="black" stroke-width="2" stroke-linecap="round" stroke-linejoin="round"/>
</svg>
