<svg width="28" height="28" viewBox="0 0 28 28" fill="none" xmlns="http://www.w3.org/2000/svg">
<path d="M7.6048 12.6999L12.8886 1C13.9397 1 14.9476 1.41089 15.6908 2.14228C16.434 2.87366 16.8515 3.86564 16.8515 4.89998V10.0999H24.3282C24.7111 10.0957 25.0904 10.1734 25.4398 10.3277C25.7893 10.4821 26.1004 10.7093 26.3517 10.9937C26.603 11.2781 26.7885 11.6129 26.8952 11.9749C27.002 12.3368 27.0276 12.7173 26.9701 13.0899L25.1472 24.7898C25.0516 25.4098 24.7316 25.9749 24.2461 26.381C23.7606 26.7872 23.1424 27.0069 22.5052 26.9998H7.6048M7.6048 12.6999V26.9998M7.6048 12.6999H3.64192C2.94124 12.6999 2.26926 12.9739 1.7738 13.4614C1.27834 13.949 1 14.6104 1 15.2999V24.3999C1 25.0894 1.27834 25.7507 1.7738 26.2383C2.26926 26.7259 2.94124 26.9998 3.64192 26.9998H7.6048" stroke="black" stroke-width="2" stroke-linecap="round" stroke-linejoin="round"/>
</svg>
