<svg width="32" height="26" viewBox="0 0 32 26" fill="none" xmlns="http://www.w3.org/2000/svg">
<path d="M21.1999 24.6998V22.0998C21.1999 20.7206 20.652 19.398 19.6768 18.4228C18.7017 17.4476 17.379 16.8998 15.9999 16.8998H6.89989C5.52077 16.8998 4.19812 17.4476 3.22294 18.4228C2.24775 19.398 1.69989 20.7206 1.69989 22.0998V24.6998M22.5 11.6997L25.1 14.2997L30.3 9.09968M16.65 6.4998C16.65 9.37168 14.3219 11.6998 11.45 11.6998C8.57809 11.6998 6.24997 9.37168 6.24997 6.4998C6.24997 3.62792 8.57809 1.2998 11.45 1.2998C14.3219 1.2998 16.65 3.62792 16.65 6.4998Z" stroke="black" stroke-width="2" stroke-linecap="round" stroke-linejoin="round"/>
</svg>
