<svg width="38" height="30" viewBox="0 0 38 30" fill="none" xmlns="http://www.w3.org/2000/svg">
<path d="M26.75 28.9498V25.8498C26.75 24.2055 26.0967 22.6285 24.934 21.4657C23.7713 20.303 22.1943 19.6498 20.5499 19.6498H8.14995C6.50561 19.6498 4.92861 20.303 3.76589 21.4657C2.60316 22.6285 1.94995 24.2055 1.94995 25.8498V28.9498M36.0499 28.9507V25.8507C36.0489 24.477 35.5917 23.1425 34.7501 22.0568C33.9084 20.9711 32.73 20.1956 31.3999 19.8522M25.2 1.2522C26.5336 1.59367 27.7157 2.36929 28.5598 3.45678C29.4039 4.54428 29.8621 5.88179 29.8621 7.25846C29.8621 8.63512 29.4039 9.97263 28.5598 11.0601C27.7157 12.1476 26.5336 12.9232 25.2 13.2647M20.5499 7.2498C20.5499 10.674 17.7741 13.4498 14.35 13.4498C10.9258 13.4498 8.14995 10.674 8.14995 7.2498C8.14995 3.82564 10.9258 1.0498 14.35 1.0498C17.7741 1.0498 20.5499 3.82564 20.5499 7.2498Z" stroke="#070707" stroke-width="2" stroke-linecap="round" stroke-linejoin="round"/>
</svg>
